<svg xmlns="http://www.w3.org/2000/svg" viewBox="0 0 565.75 246.28"><title>Asset 2</title><g id="Layer_2" data-name="Layer 2"><g id="Layer_1-2" data-name="Layer 1"><path d="M144,125.93c-.55.81-1,1.5-1.48,2.17-5.81,8.16-11.67,16.28-17.42,24.48-4,5.7-7.85,11.51-11.76,17.28Q106,180.63,98.74,191.41c-.48.7-1,1.36-1.51,2.05a.58.58,0,0,1-.8.21c-1.11-.44-1.1-.42-1.12-1.64-.09-5.61-.18-11.22-.3-16.83-.09-4.11-.23-8.22-.39-12.33q-.3-7.88-.67-15.76-.29-6.23-.66-12.45c-.25-4.27-.48-8.53-.82-12.79-.38-4.77-.8-9.53-1.34-14.28a66.79,66.79,0,0,0-1.32-7.05,3.49,3.49,0,0,0-2.48-2.93,3.84,3.84,0,0,0-2.67.29c-1.27.62-2.5,1.31-3.74,2a1.45,1.45,0,0,1-2-.58c-.59-1.23-1.18-2.46-1.78-3.72l2.69-1.82c3-2,6-4,9-6.1,3.46-2.42,6.89-4.89,10.32-7.34a1.34,1.34,0,0,1,1.93.79c.4,2.6.79,5.2,1.13,7.81.38,2.93.71,5.87,1,8.82.22,2,.4,4,.57,6.06q.34,4,.64,8c.16,2.21.31,4.43.42,6.64q.35,6.61.65,13.23c.12,2.68.23,5.37.28,8.06q.29,14.94.55,29.87c0,.14,0,.27,0,.58a7.84,7.84,0,0,0,.53-.62l14.25-20.92c1-1.41,1.92-2.81,2.91-4.19q8.07-11.25,16.15-22.49c.75-1,1.49-2.1,2.28-3.11a1.35,1.35,0,0,0,.23-1.56c-.68,0-1.39,0-2.09,0a30.41,30.41,0,0,0-9.11,1.87c-6.61,2.57-10.39,7.66-11.84,14.77-.38,1.89-.55,3.82-.77,5.74-.09.81-.76.76-1.2,1-.17.09-.57-.11-.76-.3a7.48,7.48,0,0,1-2.16-5.05,18.28,18.28,0,0,1,3-11c4.93-7.82,11.47-13.52,20.09-16.36.84-.28,1.67-.59,2.59-.91-.1-.39-.21-.83-.34-1.26a91,91,0,0,0-12.81-27.32c-8.8-12.36-20-21.14-34.2-25.61a61.89,61.89,0,0,0-12.39-2.49,77.68,77.68,0,0,0-12-.25C39.24,51.67,19.54,72.6,13.29,96.44a79,79,0,0,0-2.16,12.08A92.82,92.82,0,0,0,10.76,123c.76,13.79,4.48,26.5,12.45,37.65,5.7,8,12.62,14.37,21.4,18.37a42.84,42.84,0,0,0,13.45,3.74c2.54.26,5.1.35,7.65.42a27.24,27.24,0,0,0,7.05-.89,1.45,1.45,0,0,1,1.68,1.12c.11.52.18,1.06.32,1.57s0,.66-.43.83a42.58,42.58,0,0,1-8.81,2.63,59.8,59.8,0,0,1-12.48,1c-14.71-.35-27.09-6.14-37-17.63A64.74,64.74,0,0,1,1.32,140.05,89.67,89.67,0,0,1,0,122.7c.23-12,2.15-23.72,7.17-34.6C17.37,66,33.8,51.71,56.29,45.13a75.05,75.05,0,0,1,13.07-2.51,94,94,0,0,1,15.78-.43,73,73,0,0,1,25.6,5.93,65.83,65.83,0,0,1,28.09,24,95.8,95.8,0,0,1,12.32,27.34c.53,1.83,1,3.68,1.47,5.52.06.21.12.43.22.77l1.1-1.37c6.32-8,12.71-15.89,19.49-23.45a179.6,179.6,0,0,1,25.64-24.07A93.21,93.21,0,0,1,222,43.78a52.61,52.61,0,0,1,12.19-3.1c5-.61,10-.68,14.73,1.23,7.71,3.09,12.55,8.89,13.88,17.51a36.43,36.43,0,0,1-2.95,20.2A51,51,0,0,1,249,95.27a76,76,0,0,1-28.77,18.22c-3.7,1.34-7.53,2.3-11.31,3.41a1.68,1.68,0,0,0-1.1.87c-3.65,6.45-7.67,12.65-11.84,18.73-8.91,13-18.58,25.32-28.6,37.37q-6.26,7.52-12.65,14.92c-1.73,2-3.63,3.86-5.42,5.8a.59.59,0,0,1-.81.14c-1-.46-1-.45-1-1.59,0-5.1.12-10.19.07-15.29,0-4.58-.18-9.16-.37-13.74-.2-4.76-.45-9.52-.8-14.27s-.83-9.62-1.29-14.43c-.28-2.92-.63-5.84-1-8.76A7,7,0,0,0,144,125.93Zm69.44-18.42,1.69-.38a64.64,64.64,0,0,0,13.83-4.24c8.56-4,15.4-10.08,19.65-19a31.58,31.58,0,0,0,3.16-18c-.95-7.16-4.91-11.8-11.33-14.1-4.69-1.68-9.5-1.39-14.29-.51a51.42,51.42,0,0,0-14.66,5.33c-8.81,4.65-16.58,10.86-23.89,17.75-10.41,9.82-19.63,20.81-28.36,32.26-.14.19-.27.4-.44.64a1.9,1.9,0,0,0,.33.11c1.53.14,3.05.3,4.58.42,3.26.25,6.51.5,9.77.7,4.41.26,8.83.62,13.25.67,5.18.07,10.35-.14,15.53-.25a1,1,0,0,0,.75-.49c.88-2.34,1.82-4.66,2.51-7.06a16.72,16.72,0,0,0,.62-6.43c-.18-1.73-.87-2.78-2.47-3.13s-3.42-.52-5.13-.74c-.74-.09-1.49-.11-2.29-.17,0-1.47,0-2.87,0-4.27a1.44,1.44,0,0,1,1.35-1.39q10.94,0,21.89,0a1.57,1.57,0,0,1,.83.4,1.3,1.3,0,0,1,.42,1.54c-.15.49-.22,1-.33,1.5a83.94,83.94,0,0,1-6.51,17.86Zm-54.09,67.37c14.95-17.34,28.38-35.82,39.1-56.41-1.39,0-2.69.08-4,.17-2.17.16-4.34.47-6.51.45-5.16,0-10.31-.23-15.46-.41-1.88-.07-3.77-.27-5.65-.43l-9.36-.8c-.79-.07-1.58-.11-2.44-.17C158.18,136.39,159.12,155.57,159.32,174.88Z" fill="#6f2c91"/><path d="M231.2,146.58c0-15.68,0-18.56-.21-21.86-.21-3.51-1.24-5.26-3.51-5.78a14.63,14.63,0,0,0-3.71-.41c-1,0-1.65-.21-1.65-1,0-.62.83-.83,2.47-.83,3.92,0,10.42.31,13.41.31,2.58,0,8.66-.31,12.58-.31,1.34,0,2.17.21,2.17.83,0,.82-.62,1-1.65,1a17.44,17.44,0,0,0-3.09.31c-2.78.52-3.61,2.27-3.82,5.88-.21,3.3-.21,6.19-.21,21.86v18.15c0,10,0,18.15.41,22.59.31,2.78,1,4.64,4.13,5.05a43.48,43.48,0,0,0,5.26.41c1.13,0,1.65.31,1.65.83,0,.72-.83,1-2,1-6.81,0-13.3-.31-16.09-.31-2.37,0-8.87.31-13,.31-1.34,0-2.06-.31-2.06-1,0-.52.41-.83,1.65-.83a16.84,16.84,0,0,0,3.71-.41c2.06-.41,2.68-2.17,3-5.16.52-4.33.52-12.48.52-22.48Z" fill="#6f2c91"/><path d="M290.7,164.73c0,13.2,0,20.32,2.17,22.17,1.75,1.55,4.44,2.27,12.48,2.27,5.47,0,9.49-.1,12.07-2.89a12.93,12.93,0,0,0,2.68-6.19c.1-.93.31-1.55,1.13-1.55s.83.52.83,1.75a81.36,81.36,0,0,1-1.55,11.86c-.62,2.27-1.13,2.78-6.5,2.78-7.43,0-12.79-.21-17.43-.31s-8.35-.31-12.58-.31c-1.13,0-3.4,0-5.88.1s-5.05.21-7.12.21c-1.34,0-2.06-.31-2.06-1,0-.52.41-.83,1.65-.83a16.84,16.84,0,0,0,3.71-.41c2.06-.41,2.58-2.68,3-5.67.52-4.33.52-12.48.52-22V146.58c0-15.68,0-18.56-.21-21.86-.21-3.51-1-5.16-4.43-5.88a15.33,15.33,0,0,0-3.4-.31c-1.13,0-1.75-.21-1.75-.93s.72-.93,2.27-.93c4.85,0,11.34.31,14.13.31,2.48,0,10-.31,14-.31,1.44,0,2.17.21,2.17.93s-.62.93-1.86.93a27.47,27.47,0,0,0-4,.31c-2.78.52-3.61,2.27-3.82,5.88-.21,3.3-.21,6.19-.21,21.86Z" fill="#6f2c91"/><path d="M336.59,146.58c0-15.68,0-18.56-.21-21.86-.21-3.51-1-5.16-4.43-5.88a21.24,21.24,0,0,0-4-.31c-1.13,0-1.75-.21-1.75-.93s.72-.93,2.27-.93c5.47,0,12,.31,14.13.31,3.51,0,11.34-.31,14.54-.31,6.5,0,13.41.62,19,4.43a17.88,17.88,0,0,1,7,14.13c0,7.63-3.2,14.64-13.61,23.1,9.18,11.55,16.3,20.73,22.38,27.12,5.78,6,10,6.7,11.55,7a16.28,16.28,0,0,0,2.89.31c.83,0,1.24.31,1.24.83,0,.83-.72,1-2,1h-9.8c-5.78,0-8.35-.52-11-2-4.44-2.37-8.35-7.22-14.13-15.16-4.12-5.67-8.87-12.69-10.21-14.23a2.15,2.15,0,0,0-1.86-.72l-9-.21c-.52,0-.83.21-.83.83v1.44c0,9.59,0,17.74.52,22.07.31,3,.93,5.26,4,5.67a47.45,47.45,0,0,0,5.05.41c.82,0,1.24.31,1.24.83,0,.72-.72,1-2.06,1-6,0-13.61-.31-15.16-.31-2,0-8.46.31-12.58.31-1.34,0-2.06-.31-2.06-1,0-.52.41-.83,1.65-.83a16.84,16.84,0,0,0,3.71-.41c2.06-.41,2.58-2.68,3-5.67.52-4.33.52-12.48.52-22Zm12.17,8.15c0,1.13.21,1.55.93,1.86a27.19,27.19,0,0,0,7.84,1c4.13,0,5.47-.41,7.32-1.75,3.09-2.27,6.08-7,6.08-15.47,0-14.64-9.69-18.87-15.78-18.87a22.63,22.63,0,0,0-5.47.41c-.72.21-.93.62-.93,1.44Z" fill="#6f2c91"/><path d="M414.45,146.58c0-15.68,0-18.56-.21-21.86-.21-3.51-1.24-5.26-3.51-5.78a14.63,14.63,0,0,0-3.71-.41c-1,0-1.65-.21-1.65-1,0-.62.83-.83,2.47-.83,3.92,0,10.42.31,13.41.31,2.58,0,8.66-.31,12.58-.31,1.34,0,2.17.21,2.17.83,0,.82-.62,1-1.65,1a17.44,17.44,0,0,0-3.09.31c-2.78.52-3.61,2.27-3.82,5.88-.21,3.3-.21,6.19-.21,21.86v18.15c0,10,0,18.15.41,22.59.31,2.78,1,4.64,4.13,5.05a43.48,43.48,0,0,0,5.26.41c1.13,0,1.65.31,1.65.83,0,.72-.83,1-2,1-6.81,0-13.3-.31-16.09-.31-2.37,0-8.87.31-13,.31-1.34,0-2.06-.31-2.06-1,0-.52.41-.83,1.65-.83a16.84,16.84,0,0,0,3.71-.41c2.06-.41,2.68-2.17,3-5.16.52-4.33.52-12.48.52-22.48Z" fill="#6f2c91"/><path d="M451.78,193.4c-1.65-.72-2-1.24-2-3.51,0-5.67.41-11.86.52-13.51s.41-2.68,1.24-2.68,1,.93,1,1.75a21.79,21.79,0,0,0,.93,5.26c2.27,7.63,8.35,10.42,14.75,10.42,9.28,0,13.82-6.29,13.82-11.76,0-5.05-1.55-9.8-10.11-16.5l-4.74-3.71C455.91,150.29,452,143.07,452,134.72c0-11.34,9.49-19.49,23.82-19.49A49.92,49.92,0,0,1,489.53,117c.93.21,1.44.52,1.44,1.24,0,1.34-.41,4.33-.41,12.38,0,2.27-.31,3.09-1.13,3.09s-1-.62-1-1.86a12.48,12.48,0,0,0-2.68-6.81c-1.55-2-4.54-5.05-11.24-5.05-7.63,0-12.27,4.43-12.27,10.62,0,4.74,2.37,8.35,10.93,14.85l2.89,2.17c12.48,9.39,16.91,16.5,16.91,26.3a20.79,20.79,0,0,1-9.69,17.95c-5.16,3.3-10.93,4.23-16.4,4.23C460.86,196.09,456.22,195.36,451.78,193.4Z" fill="#6f2c91"/><path d="M517.47,146.58c0-15.68,0-18.56-.21-21.86-.21-3.51-1-5.16-4.43-5.88a21.25,21.25,0,0,0-4-.31c-1.13,0-1.75-.21-1.75-.93s.72-.93,2.27-.93c2.79,0,5.78.1,8.35.1s5.05.21,6.5.21c3.3,0,23.82,0,25.78-.1a41.18,41.18,0,0,0,4.44-.62,9.61,9.61,0,0,1,1.65-.41c.52,0,.62.41.62.93a66.06,66.06,0,0,0-.83,6.7c-.1,1-.31,5.57-.52,6.81-.1.52-.31,1.13-1,1.13s-.93-.52-.93-1.44a11.07,11.07,0,0,0-.62-3.71c-.72-1.86-1.75-3.09-6.91-3.71-1.75-.21-12.58-.41-14.65-.41-.52,0-.72.31-.72,1v26.09c0,.72.1,1.13.72,1.13,2.27,0,14.13,0,16.5-.21s4-.52,5-1.55c.72-.83,1.13-1.34,1.65-1.34s.72.21.72.83-.41,2.27-.82,7.53c-.1,2.06-.41,6.19-.41,6.91s0,2-.93,2a.82.82,0,0,1-.93-.93,27.16,27.16,0,0,0-.41-3.71c-.52-2.06-2-3.61-5.78-4-2-.21-12.17-.31-14.64-.31-.52,0-.62.41-.62,1v8.15c0,3.51-.1,13,0,16,.21,7.12,1.86,8.66,12.38,8.66,2.68,0,7,0,9.69-1.24s3.92-3.4,4.64-7.63c.21-1.13.41-1.55,1.13-1.55s.82.82.82,1.86a80.86,80.86,0,0,1-1.34,11.45c-.72,2.68-1.65,2.68-5.57,2.68-7.73,0-17.78-.21-22.21-.31s-3.26-.31-6.35-.31c-1.13,0-3.4,0-5.88.1s-5.05.21-7.12.21c-1.34,0-2.06-.31-2.06-1,0-.52.41-.83,1.65-.83a16.84,16.84,0,0,0,3.71-.41c2.06-.41,2.58-2.68,3-5.67.52-4.33.52-12.48.52-22Z" fill="#6f2c91"/><path d="M274.1,75.48h.42A26,26,0,0,0,287.2,79.2h2.08l11.43-.93h3.74q9.77,0,19.44,10.23v.42q-10.6-7.36-18.61-7.36h-5l-16.53,2.28L285.12,82Q274.1,78.53,274.1,75.48Zm12.26,11.16A2.17,2.17,0,0,1,288,88.93l-1.25.93H286L284.7,88.5Q285.12,86.65,286.37,86.64Zm3.74-1.35h.42l.83.93v1.35h-2.08V86.22Zm4.26-.93.42,1.86-.42.42h-.83l-.83-.93V84.36h.83l.42-.51Zm12.26.93h2.91l8.84,1.86v.42l-2.08.93h-.42V87.15h-2.08l-.41-.51H313V88.5h-1.35V88l.42-1.35h-.42a30.29,30.29,0,0,0-16.84,5.07H294l-1.25-1.35v-.93Q295.61,85.29,306.63,85.29Zm-9.36-2.37.83,1.86-1.25.93-1.25-1.35Q295.62,83.6,297.28,82.92Zm2.6,9.72q1.66.51,1.66,2.79l-1.25,1.44h-.83l-1.35-1.44Q298.11,93.16,299.88,92.65Zm0-9.72h.42l.83.93-.83.93H299v-.93Zm3.33,7.44.83,1.35A2,2,0,0,1,302,93.58l-.83-1.35v-.51Q301.13,90.7,303.21,90.36Zm-.83-7.44h.83l.83.93-.42.51v.42l-1.25-.42Zm2.5,6,1.35,1.44-.94.93H304l-.42-1.86.42-.51Zm.41-6h.94l.83.93-1.25.93-.52-.42Zm8.52,6q7.17,0,13.93,5.16h-.83q-7.07-3.3-11.85-3.3h-.42q-5.92.59-5.92,6.09,1.45,3.21,3.33,3.21l1.77-.42h.42v.42l-3.85.93q-2.81,0-4.57-3.72V95.44Q305.8,90.7,313.81,88.93Zm-6.34-1.35.83.93v1.35h-1.25l-.83-.93Zm.83-4.65h.42l.83.93v.51H308.3Zm1.25,4.23,1.25.42v1.35l-1.25.51-.41-1.86Zm1.66-3.3h1.35l-.94.93h-.41Zm31.28-15.3q11.85,2.11,11.85,10.65v3.3l-1.35,6-.42-.51h-.42l.42-.42v-.93h-.83q0,3-5.51,4.65l-2.49-.51q0-.93,1.66-.93v-.93q-5.51-1.35-5.51-5.5V82q2.6,3.3,4.68,3.3h.83q3.12,0,3.43-1.44h-.42l-2.18.51a20.41,20.41,0,0,0,3.43-7q-2-7.35-6.76-7.36h-3a11.66,11.66,0,0,0-6.24,6.43h.41l3.33-1.35q-5.09,4.74-5.09,6.51h.42l-.42.42q0,8.71,8.94,13.44a9.39,9.39,0,0,0,4.57.93h2.6q10.19,0,29.94-11.58,16.52-7.87,25.36-7.86,8.11,0,10.91,7.86l.83,6q-2.39,7.95-5.82,7.95-.83.93-5.51,1.86,0-1.44,1.25-1.44v-.42l-3.85-.93.83-.93,1.35.42v-.42q0-.93-1.35-.93l-1.66-3.3.42-1.86h.42L407,92.65l-.41-.42V90.79H407l3,1.86q3.74-1.18,3.74-3.72,0-5.5-8-6.93h-3.85q-6.34,0-32.85,11.58-11,4.23-19.85,4.23-13.1,0-16.94-11.16l-.42-4.14q-1.25.42-1.25,2.79V88.5q0,7.7,14.76,10.65h5.09q7.49,0,20.27-5.07-5.82,5.07-23.18,7.86H345q-6.76-.42-6.76-1.35L337,101l-8.84-2.79h-.83q-1.77,0-3.43,2.37l-1.25-2.79h-.83l-3.43,1.35v-.42l1.35-2.37v-.42l-.42.42h-.94l-.42-.42L312,97.3q0-1.86,7.28-3.72,0-.93-2.18-.93v-.42H318q6,0,16.11,6.93v-.42q-6.76-5.33-6.75-12.09,0-5,5.4-9.72Q336,68.55,342.49,68.55Zm-28.69,19h1.25v.93h-.42Zm4.57,0h1.77v.93h-.41L318.38,88Zm19.85-19h.42v.51q-12.16,5.33-12.16,16.23v.42l.83,5.58q-1.35,0-2.6-7.86V82Q324.72,72.53,338.23,68.55Zm81.07-2.79q1.35,0,2.91,11.16l-.42.42h.42q6.65-4.56,12.26-4.57,7.07.93,7.17,2.28l-3.74-.51q-11.54,0-18.19,12.09h-.42q-4.68-12.09-18.61-12.09l-2.49.51h-.42v-.51L405,72.78q5.72,0,12.26,4.57h.42v-.42ZM405.38,67.2h.83q4.78,0,9.67,7.86h-.42Q411,70,401.95,70,402.88,67.2,405.38,67.2Zm2.5-3.3h1.25q4.68,0,7.17,9.81-5.41-7-9.25-7.95v-.93Zm6.76-2.28q2.59,0,2.6,6.51v2.79h-.41q0-2.62-3.43-7.44v-.93C413.38,61.93,413.8,61.62,414.63,61.62Zm11.85,18.52v.51a15.28,15.28,0,0,0-4.26,9.22q0,3,4.26,7.95v1.86l-2.08.42H423q-2.91-1.78-2.91-6.93h-.42q0,6.93-4.26,6.93h-1.25l-.83-.93V97.81q3.85-4.48,3.85-7V88q0-2.79-3.85-7.36h.42q5.51,4,5.51,9.22v1.44h.83Q420.14,84.7,426.48,80.13Zm-6.34-20.38q1.66,0,1.66,2.28h.42q-.83,2.11-1.66,2.37-2.18,0-2.5-1.44V61.11Q418.06,60.09,420.14,59.76Zm5.09,1.86,1.25.42v1.44Q423,68,423,70.92h-.41l-.42-1.86Q422.94,61.62,425.23,61.62Zm5.51,2.28H432l.83.93L426.48,70l-2.91,3.72V73.2Q426.16,63.9,430.74,63.9Zm2.91,2.79q3.85,1.19,3.85,2.37V70H437q-8.11,0-12.58,5.07H424a17.53,17.53,0,0,1,9.25-8.37Zm63.72,1.86q6.24,0,10.6,9.72a8.94,8.94,0,0,1,4.57,7.95q0,8-7.17,12.51v.42h.42q10.08-6.93,16.11-6.93h.42v.42h-1.25v.51l5,2.28,2.6,2.37h-.41q-1.77-1.44-7.69-1.86l-.42.42v.51l.94.93v.93h-.52L518,97.81H516.8q0,2.79-1.25,2.79a2.86,2.86,0,0,0-3-2.37h-.83L502.87,101l-.42-.42a27.22,27.22,0,0,1-8,1.35q-11.33,0-25.36-7.44v-.42h.83q10.7,5.07,19.44,5.07h3.33q13.1-1,16.11-8.79l.42-2.79V86.22L508.38,82H508q0,12.34-12.68,15.3l-4.26.51q-13.93,0-39.19-12.09-9-3.72-13.93-3.72h-3.85q-8,1.27-8,7.44.52,2.11,3.33,3.21,1.35,0,3.43-1.86h.41l.42,1.86q2.49-1.86,3.85-1.86h1.25l.42,1.44q0,1.1-3.43,5.07h.83l1.35-.42v.93l-3.43.93,1.25,1.86q-11.33-2.37-11.33-9.81,0-13.87,12.16-13.87,11.33,0,41.78,16.66,7.9,2.79,11.85,2.79h3q11.43,0,13.93-12.51V80.13l-4.68-5.07h.42l3.33,1.35Q503,70,498.61,70h-1.66q-6.76,2.2-6.76,6.93,0,3,3,6.51v.93l-.52-.51H491q.31,1.44,3.43,1.44h.42q2,0,5.09-3.3v1.44q0,4.06-5.51,5.5H494q0,1.1,2.08,1.44v.42l-1.66.51q-3.74,0-7.17-4.65V88.5h-.42l-1.35-6.93V79.2q0-8.29,11.43-10.65Zm3.43,0H502q13.1,4.23,13.1,14l-1.77,7.86H513l.42-4.65q0-11.75-12.58-16.66ZM526,88.93q8,1.61,8,7-.94,5.07-4.57,5.07l-3.85-.93v-.42h1.25l.42.42h.52q2.18,0,3.33-3.72-1.15-5.58-5.92-5.58h-.42q-4,0-12.68,3.3Q512.12,91.63,526,88.93Zm39.7-13.44q-6,6.51-11,6.51l1.35,1.86h-.42l-17.36-2.28h-3.74q-9.57,0-19.85,8.79v-.51q9.87-11.59,20.68-11.58h4.16l11,1.44A40.73,40.73,0,0,0,565.75,75.48ZM520.12,87.58h1.35V88l-2.18.51Zm13.93-2.79,3.43.93.42-.42q9.25,1.61,9.25,5.5l-1.25.93h-.42l-9.67-4.14-7.17-.93h-.83v.51l.42,1.35h-1.35V86.64l-1.25.51.42.42V88l-.42.51h-.83V88l.42-.42v-.42H524c0,.9-.28,1.35-.83,1.35q0-.93-1.66-.93v-.42a36.67,36.67,0,0,1,9.67-1.86h2.5Zm-4.57,2.37,1.25.42V88l-.83.93h-.83V88l.42-.42Zm.83-4.23h.41l.83.93v.51h-1.25Zm2.49,4.65.83,1.35-1.25.93h-.83V88Zm1.77-4.65v1.44h-.94l-.83-.93.42-.51Zm.41,6h.83l.42,1.44-1.25.93h-.41l-.94-.93Zm.83-6h1.66v.93l-.83.93-.83-.93Zm1.25,7.44h.42l1.25,1.35v.51l-1.25,1.35-1.66-1.35ZM540,92.65q1.76.51,1.77,2.79-.52,1.44-2.6,1.44l-.83-1.44V94.08Zm-.42-9.72H540l.83.93v.93h-1.25l-.83-.93Zm2.6.51h1.25l.83.93-.42,1.35H543l-1.25-.93Zm3.74.42,1.66,1.44-1.25,1.35h-.42l-.83-.93V84.36h.83Zm3.43,1.44h.42l.83.93v.42l-.83.93H548.5L548,86.22Zm3.74,1.35h.42L554.74,88v1.44l-2.08.42-.83-1.35V88Z" fill="#87c540"/><path d="M360.14,75.58a52.11,52.11,0,0,1,8.49-27.42c8.33-12.66,25.1-25,50.28-25S460.81,35.42,469.28,48a53,53,0,0,1,8.95,27.14,66.2,66.2,0,0,0-13-27.42c-9-11.22-24.34-19.28-46.21-19-22,.25-37,8.34-46,19.66A68.88,68.88,0,0,0,360.14,75.58Z" fill="#f89521"/><path d="M373,78.45A40.72,40.72,0,0,1,379.62,57c6.51-9.89,19.61-19.53,39.28-19.53s32.75,9.57,39.36,19.39a41.39,41.39,0,0,1,7,21.21,51.72,51.72,0,0,0-10.13-21.42c-7.07-8.77-19-15.06-36.1-14.86s-28.93,6.51-35.95,15.36A53.82,53.82,0,0,0,373,78.45Z" fill="#f89521"/><path d="M385.95,78.4a29.68,29.68,0,0,1,4.83-15.61c4.75-7.21,14.3-14.24,28.63-14.24s23.87,7,28.69,14.13a30.17,30.17,0,0,1,5.1,15.46,37.7,37.7,0,0,0-7.38-15.61c-5.15-6.39-13.86-11-26.32-10.83s-21.09,4.75-26.2,11.2A39.23,39.23,0,0,0,385.95,78.4Z" fill="#f89521"/><rect x="406.07" y="7.82" width="24.83" height="5.06" fill="#f89521"/><rect x="415.88" width="4.6" height="25.75" fill="#f89521"/><path d="M95.81,214.46h14.61q0,.38-.08.72a5.2,5.2,0,0,0,0,.63,5.32,5.32,0,0,0,0,.62q0,.35.08.75a25.87,25.87,0,0,0-4.32-.49q-2.59-.11-6.7-.09v11.56H106q.58,0,1.39-.08l2-.17q0,.27-.08.59a5.05,5.05,0,0,0,0,.62,5.45,5.45,0,0,0,0,.62q0,.35.08.62-1.29-.07-2.12-.15t-1.23-.08H99.39v15.61a7.76,7.76,0,0,0-.93-.08H96.71a7.21,7.21,0,0,0-.91.08Z" fill="#6f2c91"/><path d="M117,214.61a7.66,7.66,0,0,0,.9-.06l.92-.1v17.63q0,7.08,2.42,9.71a8.14,8.14,0,0,0,6.65,2.5,7.76,7.76,0,0,0,6.75-3.24q2.26-3.21,2.26-9.49V214.46l.6.1a2.79,2.79,0,0,0,.54.06,2.65,2.65,0,0,0,.53-.06l.57-.1V233q0,6.07-3,9.64t-9.1,3.68q-5.4,0-8.56-2.9t-3.24-9.8V214.46l.88.1A7.31,7.31,0,0,0,117,214.61Z" fill="#6f2c91"/><path d="M148.2,221.06h-.42v24.66a3.64,3.64,0,0,0-.56-.08h-1.09a4.08,4.08,0,0,0-.6.08V214.46h1.61l19.59,23.63h.42V214.46l.62.1a2.45,2.45,0,0,0,.53.06,2.42,2.42,0,0,0,.54-.06l.58-.1v31.31h-1.17q-.6-.81-3.12-3.92l-5.85-7.2-6.38-7.83Z" fill="#6f2c91"/><path d="M175.72,214.46h14.61q0,.38-.08.72a5.2,5.2,0,0,0,0,.63,5.32,5.32,0,0,0,0,.62q0,.35.08.75a25.87,25.87,0,0,0-4.32-.49q-2.59-.11-6.7-.09v11.56H186q.58,0,1.39-.08l2-.17q0,.27-.08.59a5.05,5.05,0,0,0,0,.62,5.45,5.45,0,0,0,0,.62q0,.35.08.62-1.29-.07-2.12-.15t-1.23-.08h-6.73v13.44q3.21,0,6.15-.13a49.19,49.19,0,0,0,5.14-.47q0,.38-.09.71a4.16,4.16,0,0,0-.05.64,4,4,0,0,0,.05.62q.05.33.09.73H175.72Z" fill="#6f2c91"/><path d="M203.7,214.46q4.76,0,7,1.75a6.19,6.19,0,0,1,2.18,5.2,7.78,7.78,0,0,1-2.31,5.76,11.91,11.91,0,0,1-6.16,3q3.27,4.68,5.33,7.55l3.2,4.42q1.13,1.56,1.73,2.34l1,1.3q-.62-.07-1.21-.08h-2.28q-.59,0-1.21.08-1.33-1.9-2.48-3.67t-2.37-3.51q-1.22-1.74-2.67-3.71t-3.31-4.37h-1.57v15.25a7.71,7.71,0,0,0-.92-.08h-1.77a7.15,7.15,0,0,0-.9.08V214.46Zm-3.17,14.4q4.58-.07,6.64-2a6.31,6.31,0,0,0,2-4.94,7.36,7.36,0,0,0-.34-2.33,5,5,0,0,0-1-1.79,4.92,4.92,0,0,0-2.42-1.46A12.32,12.32,0,0,0,202,216l-.78,0-2.71.1v12.66Z" fill="#6f2c91"/><path d="M229.51,213.78l12.34,31.94q-.58-.07-1.09-.08h-2.11q-.51,0-1.1.08-.75-2.26-1.36-4.05t-1.13-3.24q-.51-1.44-1-2.67l-.88-2.36H222.7l-1,2.81q-.49,1.33-1,2.7t-1,3q-.51,1.66-1.1,3.79a5.32,5.32,0,0,0-.77-.08h-1.49a3.58,3.58,0,0,0-.67.08l12.84-31.94Zm-1.49,6-4.54,11.78h9.11Z" fill="#6f2c91"/><path d="M246.55,214.61a7.81,7.81,0,0,0,.92-.06l.9-.1v29.1q4,0,6.82-.16a43.76,43.76,0,0,0,4.59-.45q0,.38-.08.73a5.78,5.78,0,0,0,0,.66,4.51,4.51,0,0,0,0,.59q0,.3.08.71h-15V214.46l.9.1A7.14,7.14,0,0,0,246.55,214.61Z" fill="#6f2c91"/><path d="M274,214.46h14.61q0,.38-.08.72a5.2,5.2,0,0,0,0,.63,5.32,5.32,0,0,0,0,.62q0,.35.08.75a25.87,25.87,0,0,0-4.32-.49q-2.59-.11-6.7-.09v11.56h6.65q.58,0,1.39-.08l2-.17q0,.27-.08.59a5.05,5.05,0,0,0,0,.62,5.45,5.45,0,0,0,0,.62q0,.35.08.62-1.29-.07-2.12-.15t-1.23-.08h-6.73v13.44q3.21,0,6.15-.13a49.19,49.19,0,0,0,5.14-.47q0,.38-.09.71a4.16,4.16,0,0,0-.05.64,4,4,0,0,0,.05.62q.05.33.09.73H274Z" fill="#6f2c91"/><path d="M296.34,221.06h-.42v24.66a3.64,3.64,0,0,0-.56-.08h-1.09a4.08,4.08,0,0,0-.6.08V214.46h1.61l19.59,23.63h.42V214.46l.62.1a2.46,2.46,0,0,0,.53.06,2.42,2.42,0,0,0,.54-.06l.59-.1v31.31H316.4q-.61-.81-3.13-3.92l-5.85-7.2-6.38-7.83Z" fill="#6f2c91"/><path d="M333.66,216.63v29.18l-.93-.11a5.87,5.87,0,0,0-.89,0,6,6,0,0,0-.9,0l-.9.11V216.63q-2.72,0-4.9.15t-4.13.39q0-.4.08-.74a5.31,5.31,0,0,0,0-.63,5.21,5.21,0,0,0,0-.64q0-.32-.08-.71h21.27q0,.38-.08.71a5,5,0,0,0,0,.64,5.1,5.1,0,0,0,0,.63q0,.34.08.74-1.79-.25-3.93-.39T333.66,216.63Z" fill="#6f2c91"/><path d="M345.38,214.46H360q0,.38-.08.72a5.1,5.1,0,0,0,0,.63,5.21,5.21,0,0,0,0,.62q0,.35.08.75a25.88,25.88,0,0,0-4.32-.49q-2.59-.11-6.7-.09v11.56h6.65q.58,0,1.39-.08l2-.17q0,.27-.08.59a5.06,5.06,0,0,0,0,.62,5.46,5.46,0,0,0,0,.62q0,.35.08.62-1.29-.07-2.12-.15t-1.23-.08H349v13.44q3.2,0,6.15-.13a49.17,49.17,0,0,0,5.14-.47q0,.38-.09.71a4.09,4.09,0,0,0-.05.64,4,4,0,0,0,.05.62q0,.33.09.73H345.38Z" fill="#6f2c91"/><path d="M373.37,214.46q4.76,0,7,1.75a6.19,6.19,0,0,1,2.18,5.2,7.78,7.78,0,0,1-2.31,5.76,11.91,11.91,0,0,1-6.16,3q3.27,4.68,5.33,7.55l3.19,4.42q1.13,1.56,1.73,2.34l1,1.3q-.63-.07-1.21-.08h-2.28q-.58,0-1.21.08-1.33-1.9-2.48-3.67t-2.37-3.51q-1.22-1.74-2.67-3.71t-3.31-4.37h-1.57v15.25a7.72,7.72,0,0,0-.92-.08h-1.77a7.16,7.16,0,0,0-.9.08V214.46Zm-3.16,14.4q4.58-.07,6.64-2a6.31,6.31,0,0,0,2-4.94,7.36,7.36,0,0,0-.34-2.33,5,5,0,0,0-1-1.79,4.92,4.92,0,0,0-2.42-1.46,12.32,12.32,0,0,0-3.39-.38l-.78,0-2.71.1v12.66Z" fill="#6f2c91"/><path d="M395,214.46q5.36-.13,8.14,1.33t2.8,6.15a10.94,10.94,0,0,1-.5,3.51,6.75,6.75,0,0,1-1.45,2.5,10.5,10.5,0,0,1-4.14,2.62,15.22,15.22,0,0,1-5.13,1q-.42,0-1.28,0l-1.9-.09v14.34a7.72,7.72,0,0,0-.92-.08h-1.79a6.62,6.62,0,0,0-.88.08V214.46Zm-3.47,1.75v13.44l2,.09a12.78,12.78,0,0,0,4.19-.58,6.23,6.23,0,0,0,2.7-1.79,6.39,6.39,0,0,0,1.3-2.24,8.69,8.69,0,0,0,.47-2.91,8.4,8.4,0,0,0-.35-2.49,5,5,0,0,0-1-1.9,4.44,4.44,0,0,0-2.45-1.39,19,19,0,0,0-4.08-.31l-1.25,0Q392.06,216.16,391.54,216.2Z" fill="#6f2c91"/><path d="M418.66,214.46q4.76,0,7,1.75a6.19,6.19,0,0,1,2.18,5.2,7.78,7.78,0,0,1-2.31,5.76,11.91,11.91,0,0,1-6.16,3q3.27,4.68,5.33,7.55l3.19,4.42q1.13,1.56,1.73,2.34l1,1.3q-.63-.07-1.21-.08H427.1q-.58,0-1.21.08-1.33-1.9-2.48-3.67T421,238.54q-1.22-1.74-2.67-3.71t-3.31-4.37H413.5v15.25a7.72,7.72,0,0,0-.92-.08H410.8a7.16,7.16,0,0,0-.9.08V214.46Zm-3.16,14.4q4.58-.07,6.64-2a6.31,6.31,0,0,0,2-4.94,7.36,7.36,0,0,0-.34-2.33,5,5,0,0,0-1-1.79,4.92,4.92,0,0,0-2.42-1.46A12.32,12.32,0,0,0,417,216l-.78,0-2.71.1v12.66Z" fill="#6f2c91"/><path d="M435.67,214.61a7.65,7.65,0,0,0,.9-.06l.92-.1v31.27a7.77,7.77,0,0,0-.93-.08h-1.78a6.62,6.62,0,0,0-.88.08V214.46l.88.1A7.3,7.3,0,0,0,435.67,214.61Z" fill="#6f2c91"/><path d="M456.1,219.7a6.83,6.83,0,0,0-2-2.92,4.93,4.93,0,0,0-3.15-1.06,5.21,5.21,0,0,0-3.56,1.39,5.43,5.43,0,0,0-1.64,4.1,5.18,5.18,0,0,0,2,4.37,20.18,20.18,0,0,0,4.45,2.35,14.75,14.75,0,0,1,4.49,2.71q1.95,1.72,2.07,5.35a9.78,9.78,0,0,1-10.12,10.3,11.85,11.85,0,0,1-3.73-.68,7.35,7.35,0,0,1-3-1.87,18.17,18.17,0,0,0,.48-2.11q.2-1.16.3-2H443a12.54,12.54,0,0,0,2.55,3.3,6,6,0,0,0,4.08,1.47,5.44,5.44,0,0,0,4.17-1.95,7.21,7.21,0,0,0,1.65-4.75,5.63,5.63,0,0,0-2-4.6,18.1,18.1,0,0,0-4.43-2.36,13.77,13.77,0,0,1-4.44-2.68q-1.93-1.74-2-5.5.12-4.57,2.76-6.7a9.68,9.68,0,0,1,6.33-2.1,9.91,9.91,0,0,1,3.63.69,6.2,6.2,0,0,1,2.3,1.5,15.91,15.91,0,0,0-.63,1.9q-.29,1.08-.47,1.81Z" fill="#6f2c91"/><path d="M462.86,214.46h14.61q0,.38-.08.72a5.1,5.1,0,0,0,0,.63,5.21,5.21,0,0,0,0,.62q0,.35.08.75a25.88,25.88,0,0,0-4.32-.49q-2.59-.11-6.7-.09v11.56h6.65q.58,0,1.39-.08l2-.17q0,.27-.08.59a5.06,5.06,0,0,0,0,.62,5.46,5.46,0,0,0,0,.62q0,.35.08.62-1.29-.07-2.12-.15t-1.23-.08h-6.73v13.44q3.2,0,6.15-.13a49.17,49.17,0,0,0,5.14-.47q0,.38-.09.71a4.09,4.09,0,0,0-.05.64,4,4,0,0,0,.05.62q0,.33.09.73H462.86Z" fill="#6f2c91"/><path d="M493.86,214.61a7.82,7.82,0,0,0,.92-.06l.9-.1v29.1q4,0,6.82-.16a43.77,43.77,0,0,0,4.59-.45l-.08.73a5.78,5.78,0,0,0,0,.66,4.51,4.51,0,0,0,0,.59q0,.3.08.71h-15V214.46l.9.1A7.15,7.15,0,0,0,493.86,214.61Z" fill="#6f2c91"/><path d="M516.33,216.63v29.18l-.93-.11a5.87,5.87,0,0,0-.89,0,6,6,0,0,0-.9,0l-.9.11V216.63q-2.72,0-4.9.15t-4.13.39q0-.4.08-.74a5.31,5.31,0,0,0,0-.63,5.21,5.21,0,0,0,0-.64q0-.32-.08-.71H525q0,.38-.08.71a5,5,0,0,0,0,.64,5.1,5.1,0,0,0,0,.63q0,.34.08.74-1.79-.25-3.93-.39T516.33,216.63Z" fill="#6f2c91"/><path d="M528.51,214.46H542.3a10.83,10.83,0,0,1,8.71,4q3.12,3.91,3.18,10.25a20.68,20.68,0,0,1-1.29,7.6,16.11,16.11,0,0,1-3.08,5,11.37,11.37,0,0,1-5,3.38,24.24,24.24,0,0,1-7.49.92h-8.79Zm3.59,1.79v27.39l2.56.17q1,.06,2.68.06a16.9,16.9,0,0,0,5.33-.68,9.41,9.41,0,0,0,4.12-2.7,11.81,11.81,0,0,0,2.35-4.14,22,22,0,0,0,1-7.06q0-7.26-3-10.28t-9.72-2.93q-1.33,0-2.67.07Z" fill="#6f2c91"/><path d="M553.5,243.51a2.88,2.88,0,0,1,.68-1.87,2.31,2.31,0,0,1,1.75-.82,2.2,2.2,0,0,1,1.77.87,2.9,2.9,0,0,1,.62,1.79,2.74,2.74,0,0,1-.62,1.78,2.31,2.31,0,0,1-3.57,0A2.71,2.71,0,0,1,553.5,243.51Z" fill="#6f2c91"/></g></g></svg>